<?xml version="1.0" encoding="utf-8"?><svg version="1.1" id="Layer_2" xmlns="http://www.w3.org/2000/svg" xmlns:xlink="http://www.w3.org/1999/xlink" x="0px" y="0px"  width="744.5px" height="159.7px" viewBox="0 0 744.5 159.7" style="enable-background:new 0 0 744.5 159.7;" xml:space="preserve" ><style type="text/css"> .st0{fill:#C4FF45;}</style><g id="Layer_1_00000032637981364360326470000017925753019497052596_"> <path class="st0" d="M182,28.2c-5-5.8-11.1-10.7-18-14.8c-13.3-7.7-29.3-11.8-46.5-11.8c-0.6,0-1.2,0-1.8,0c-3.7,0-8.2,0-13,0  c-5.6,0-29.3,0-34.4,0c-3.4,0-10.1,0-10.1,0v13.2l-47.7-7c-0.2,0-0.4,0-0.5-0.1C9.3,7.6,8.7,7.5,8.1,7.5C6.9,7.5,6,7.9,5.3,8.7  L4.9,9.1c-1.9,2.1-3.8,4.1-4.2,4.7c-1.9,2.7,0.1,4.1,0.9,4.6l0.1,0.1L50.9,52c-1,2.4-4,10.9-3,22.2c1,12.1-3.5,19.9-7.1,26.1  c-0.7,1.2-1.3,2.3-1.9,3.3c-1.5,2.8-1.4,6.1,0.1,8.9l10.7,21.6l0,0c1.6,2.9,5.3,4.4,8.5,4.6v19.8l46.2,0c15.5,0,33.3-0.8,47.9-6.8  c19.4-7.4,34.4-22.6,42-42.8c3.6-9.5,5.4-19.5,5.4-29.9c0-10.5-1.8-20.7-5.5-30.4C191.4,41.2,187.3,34.2,182,28.2z M167,66  c-2.7-2.1-7.2-4.6-11.4-5.3l0.4,1.6c5.5,4.3,7.1,10.6,7.8,18c0.7,8-1,16.4-4.7,23.6c-4.7,9-17.2,24.2-48.5,24.2H95.6  c-0.3-2.4-0.3-4.9,0-7.4c1.2-10.6,5.7-16.1,9.6-20.9c3.8-4.7,7-6.7,9.7-8.5c2.5-1.6,4.8-3.1,7.1-6.1c3.5-4.6,2.1-9.4,2.1-9.6  l-0.1-0.3l-5.2-3.6l0.3,2c0,0,0.5,3.9-0.9,6.3c-2,3.6-6.7,6.1-10.8,8.3c-0.5,0.3-1,0.5-1.4,0.8c-0.9,0.4-11.5,5.1-17.9,12.5  c-4.9,5.7-7.5,16.9-7.7,18c-0.5,1.2-1.8,2.1-3.3,2.1h-9.8c-1.4,0-2.8-0.6-3.3-1.5l-5.3-9.9c-1-2-1.1-3.4-0.5-4.6  c0.4-0.7,6.2-10.8,7.6-20.7l0,0c0.2-1.8,0.3-3.6,0.3-5.2c0-1.2,0-2.3-0.1-3.3c-0.2-9.1-0.3-11.3,2.1-19.1c1-3.3,3.1-7.3,5.9-10.8  l0.7-0.9l-38.8-19c-0.6-0.3-0.6-0.5-0.4-0.9c0.2-0.3,0.3-0.4,0.7-0.9c0.4-0.4,0.7-0.4,1.3-0.2l43.8,12.4l0.9,0.2l1,0.2l0.3-0.2  c0,0,2.1-1.3,3.5-2.1l2.2-1.3l-6.8-1.1l0.1-8.5c0-0.3,0.3-0.4,0.5-0.3l12.4,6.4l0.3-0.1c5.5-1.9,11.5-2.5,18-2.5  c14.2,0,28.4,4.6,37.9,12.2c0.2,0.1,0.1,0.4-0.2,0.4c-2.9-0.4-8.1-0.7-12.2,0l0.5,1.1c0,0,6.1,0.9,11.9,4.5  c4.9,3.1,11.5,9,15.6,19.8C167.4,66,167.2,66.1,167,66z M287.5,105.4c0,7.1-2.1,12.8-6.4,17c-4.2,4.2-9.8,6.3-16.6,6.3  c-6.7,0-12.1-2.1-16.1-6.1c-4-4-6-9.5-6-16.3V34h-35.2v70.5c0,18.3,3.9,32.1,11.6,41.2c3.8,4.5,8.5,7.9,13.9,10.2  c5.4,2.3,11.8,3.4,18.8,3.4h1.6c9.4,0,17.4-2,23.7-6c6.2-4,11-10.1,14.1-18.2c1-2.5,1.8-5.3,2.5-8.2l1.8,0.2v30.4h27.4V34h-35.2  V105.4z M428,38.5c-9.1-5.8-20.5-8.7-33.8-8.7c-10.1,0-19.3,1.7-27.2,5.2c-7.9,3.4-14.6,8.2-20,14c-5.4,5.9-9.5,12.6-12.3,20  c-2.8,7.4-4.2,15.3-4.2,23.4v4.5c0,7.8,1.4,15.5,4.2,22.9c2.8,7.4,7,14.2,12.4,20.2c5.4,6,12.3,10.8,20.3,14.4  c8.1,3.5,17.5,5.3,28.1,5.3c10.4,0,19.8-1.8,27.8-5.4c8-3.6,14.7-8.6,20-14.9c5-6,8.5-12.9,10.4-20.5h-32.1  c-1.7,3.7-4.7,6.8-8.9,9.3c-4.4,2.6-10.2,3.9-17.1,3.9c-7.5,0-13.8-1.6-18.5-4.6c-4.8-3.1-8.3-7.5-10.5-13.1  c-1.2-3.1-2.1-6.5-2.6-10.2l-0.2-1h92.5V91.9c0-11-2.5-21.3-7.3-30.7C444.2,51.9,437.1,44.3,428,38.5z M364.1,84.5l0.2-1.1  c0.6-3.3,1.5-6.3,2.6-9.1c2.4-5.6,5.9-9.9,10.5-12.8c4.6-2.8,10.3-4.3,16.9-4.3c6.5,0,11.9,1.4,16.3,4.3c4.4,2.9,7.7,7,9.8,12.3  c1.1,2.8,2,6,2.5,9.5l0.2,1H364.1z M739.9,68.4c-3.1-7.6-7.5-14.3-13.3-20c-5.7-5.7-12.7-10.3-20.9-13.6c-8.2-3.3-17.6-5-28-5  c-10.2,0-19.5,1.7-27.7,5c-8.2,3.3-15.3,7.9-21.1,13.6c-5.8,5.7-10.3,12.4-13.4,20c-3.1,7.6-4.6,15.6-4.6,24v5.2  c0,8.2,1.5,16.2,4.4,23.6c2.9,7.4,7.3,14.1,13,19.9c5.7,5.8,12.8,10.4,21,13.7c8.2,3.3,17.8,5,28.4,5c10.7,0,20.4-1.7,28.6-5  c8.2-3.3,15.2-7.9,20.9-13.7c5.6-5.8,10-12.5,12.9-19.9c2.9-7.4,4.4-15.3,4.4-23.6v-5.2C744.5,84,743,75.9,739.9,68.4z   M706.5,113.4c-2.5,5.5-6.1,9.9-10.9,13c-4.8,3.1-10.8,4.6-18,4.6c-6.9,0-12.8-1.6-17.7-4.6c-4.9-3.1-8.7-7.4-11.1-13  c-2.4-5.5-3.7-11.6-3.7-18.3c0-7.1,1.3-13.5,3.8-18.9c2.5-5.4,6.3-9.8,11.2-12.9c4.9-3.1,10.8-4.7,17.5-4.7  c6.9,0,12.8,1.6,17.6,4.7c4.8,3.1,8.6,7.5,11.1,12.9c2.5,5.4,3.8,11.8,3.8,18.9C710.2,101.7,709,107.9,706.5,113.4z M572.3,0.6  c0-0.5-0.5-0.7-0.9-0.5l-31.8,14.8c-0.2,0.1-0.3,0.3-0.3,0.5V34l-41.8,0V0.6c0-0.5-0.5-0.7-0.9-0.5l-31.8,14.8  c-0.2,0.1-0.3,0.3-0.3,0.5v18.8l-0.2,74.3c0,12.2,1.8,22,5.3,29.1c3.5,7,9,12.1,16.4,15.2c7.5,3.1,17.5,4.6,29.7,4.6h15.8v-28.7  H516c-5.9,0-10.5-1.6-13.8-4.9c-3.2-3.2-4.9-7.9-4.9-14V67.7h41.9l-0.1,40.8c0,12.2,1.8,22,5.3,29.1c3.5,7,9,12.1,16.4,15.2  c7.5,3.1,17.5,4.6,29.7,4.6h15.8v-28.7h-15.5c-5.9,0-10.5-1.6-13.8-4.9c-3.2-3.2-4.9-7.9-4.9-14V67.7h34.1V34h-34.1V0.6z"/></g></svg>
